<svg width="51" height="28" viewBox="0 0 51 28" fill="none" xmlns="http://www.w3.org/2000/svg">
<rect width="51" height="28" rx="4" fill="#CE0000"/>
<path d="M19.04 8.432V20H16.88V14.944H11.448V20H9.288V8.432H11.448V13.408H16.88V8.432H19.04ZM32.6481 14.216C32.6481 15.064 32.5068 15.8507 32.2241 16.576C31.9468 17.296 31.5521 17.92 31.0401 18.448C30.5281 18.976 29.9121 19.3893 29.1921 19.688C28.4721 19.9813 27.6721 20.128 26.7921 20.128C25.9175 20.128 25.1201 19.9813 24.4001 19.688C23.6801 19.3893 23.0615 18.976 22.5441 18.448C22.0321 17.92 21.6348 17.296 21.3521 16.576C21.0695 15.8507 20.9281 15.064 20.9281 14.216C20.9281 13.368 21.0695 12.584 21.3521 11.864C21.6348 11.1387 22.0321 10.512 22.5441 9.984C23.0615 9.456 23.6801 9.04533 24.4001 8.752C25.1201 8.45333 25.9175 8.304 26.7921 8.304C27.3788 8.304 27.9308 8.37333 28.4481 8.512C28.9655 8.64533 29.4401 8.83733 29.8721 9.088C30.3041 9.33333 30.6908 9.63467 31.0321 9.992C31.3788 10.344 31.6721 10.7387 31.9121 11.176C32.1521 11.6133 32.3335 12.088 32.4561 12.6C32.5841 13.112 32.6481 13.6507 32.6481 14.216ZM30.4481 14.216C30.4481 13.5813 30.3628 13.0133 30.1921 12.512C30.0215 12.0053 29.7788 11.576 29.4641 11.224C29.1495 10.872 28.7655 10.6027 28.3121 10.416C27.8641 10.2293 27.3575 10.136 26.7921 10.136C26.2268 10.136 25.7175 10.2293 25.2641 10.416C24.8161 10.6027 24.4321 10.872 24.1121 11.224C23.7975 11.576 23.5548 12.0053 23.3841 12.512C23.2135 13.0133 23.1281 13.5813 23.1281 14.216C23.1281 14.8507 23.2135 15.4213 23.3841 15.928C23.5548 16.4293 23.7975 16.856 24.1121 17.208C24.4321 17.5547 24.8161 17.8213 25.2641 18.008C25.7175 18.1947 26.2268 18.288 26.7921 18.288C27.3575 18.288 27.8641 18.1947 28.3121 18.008C28.7655 17.8213 29.1495 17.5547 29.4641 17.208C29.7788 16.856 30.0215 16.4293 30.1921 15.928C30.3628 15.4213 30.4481 14.8507 30.4481 14.216ZM42.2274 10.2H38.7394V20H36.5874V10.2H33.0994V8.432H42.2274V10.2Z" fill="white"/>
</svg>
